<?xml version="1.0" encoding="utf-8"?>
<!-- Generator: Adobe Illustrator 22.1.0, SVG Export Plug-In . SVG Version: 6.00 Build 0)  -->
<svg version="1.1" id="Layer_1" xmlns="http://www.w3.org/2000/svg" xmlns:xlink="http://www.w3.org/1999/xlink" x="0px" y="0px"
	 viewBox="0 0 384 512" style="enable-background:new 0 0 384 512;" xml:space="preserve">
<style type="text/css">
	.st0{fill:#35425B;}
</style>
<path class="st0" d="M196.7,363.3l-13.9-41.6c-3.3-9.8-12.4-16.4-22.8-16.4s-19.5,6.6-22.8,16.4L119,376.4
	c-1.5,4.6-5.8,7.6-10.6,7.6H96c-8.8,0-16,7.2-16,16s7.2,16,16,16h12.4c18.6,0,35.1-11.9,41-29.5l10.6-31.9l16.8,50.5
	c2.1,6.1,7.6,10.4,14.1,10.9c0.4,0,0.8,0,1.1,0c6,0,11.6-3.4,14.3-8.9l7.7-15.3c2.8-5.6,7.9-6.2,10-6.2s7.3,0.6,10.2,6.5
	c7.4,14.7,22.2,23.8,38.6,23.8H288c8.8,0,16-7.2,16-16s-7.2-16-16-16h-15.2c-4.3,0-8.1-2.4-10.2-6.5
	C250.7,353.6,216.4,347.2,196.7,363.3L196.7,363.3z M369.8,98l-83.9-83.9c-9-9-21.2-14.1-33.9-14.1H48C21.5,0.1,0,21.6,0,48.1V464
	c0,26.5,21.5,48,48,48h287.9c26.5,0,48.1-21.5,48.1-48V132C384,119.3,378.8,107,369.8,98z M255.9,52l76.1,76.1h-76.1L255.9,52
	L255.9,52z M336,464H48V48.1h160v104c0,13.3,10.7,24,24,24h104V464z M88,112h80c4.4,0,8-3.6,8-8V88c0-4.4-3.6-8-8-8H88
	c-4.4,0-8,3.6-8,8v16C80,108.4,83.6,112,88,112z M88,176h80c4.4,0,8-3.6,8-8v-16c0-4.4-3.6-8-8-8H88c-4.4,0-8,3.6-8,8v16
	C80,172.4,83.6,176,88,176z"/>
</svg>
